<svg xmlns="http://www.w3.org/2000/svg" width="161" height="24" viewBox="0 0 161 24" fill="none"><g clip-path="url(#clip0_954_1332)"><path d="M43.137 18.756h3.17v4.193c-.233.025-.462.07-.691.075-3.662.085-7.324.17-10.986.247-4.414.093-8.494-3.004-10.04-7.614-1.471-4.383-.076-9.554 3.367-12.486 4.155-3.536 9.726-3.386 13.678.37 3.91 3.714 4.708 9.606 1.954 14.404-.122.21-.237.423-.453.81zm-8.52.236c3.423.092 6.284-2.916 6.362-6.69.084-4.116-2.548-7.207-6.245-7.33-3.42-.116-6.37 2.893-6.47 6.597-.113 4.187 2.568 7.32 6.352 7.422z" fill="white"/><path d="M111.96 23.244c-6.132-.282-10.486-5.998-10.077-11.982.426-6.215 5.556-10.993 11.03-10.65 5.915.37 10.588 6.03 10.155 12.193-.424 6.02-5.652 10.915-11.11 10.439zm6.868-11.246c.005-4.034-2.727-7.122-6.33-7.154-3.56-.032-6.385 3.107-6.39 7.1-.004 3.974 2.897 7.142 6.504 7.1 3.53-.04 6.21-3.08 6.216-7.046z" fill="white"/><path d="M21.2 12.016c-.004 6.148-4.847 11.271-10.643 11.257C4.727 23.26-.007 18.184 0 11.957.007 5.77 4.807.617 10.57.613 16.344.608 21.2 5.818 21.199 12.016zm-16.95-.027c.012 3.954 2.83 7.039 6.446 7.054 3.513.014 6.288-3.117 6.284-7.092-.004-3.971-2.844-7.128-6.394-7.107-3.6.02-6.35 3.12-6.337 7.144z" fill="white"/><path d="M143.108 23.02c-1.62 0-3.04.03-4.46-.03-.242-.01-.53-.362-.697-.627-1.136-1.792-2.287-3.576-3.347-5.42-.437-.757-.938-1.049-1.735-.957-.497.057-1.003.01-1.625.01v6.977h-4.004V.918c.355-.017.702-.056 1.047-.047 2.5.07 5.022-.051 7.493.275 2.898.381 5 2.124 5.58 5.342.594 3.289-.045 6.21-2.758 8.293-.07.056-.133.125-.27.252l4.776 7.987zm-11.816-11.253c.9 0 1.7.013 2.498-.005.416-.009.835-.038 1.245-.112 1.287-.235 2.216-1.474 2.285-3.014.073-1.636-.69-3.135-1.938-3.347-1.326-.226-2.694-.174-4.09-.245v6.722z" fill="white"/><path d="M150.645 13.986v4.776H161v4.198h-14.427V.948h14.033v4.13h-9.946v4.697h8.77v4.21h-8.785z" fill="white"/><path d="m72.544.016 9.345 22.998c-1.577 0-3.02.02-4.464-.026-.17-.005-.394-.341-.487-.572-.41-1.024-.744-2.083-1.19-3.087-.125-.284-.535-.59-.821-.599-1.879-.052-3.758-.004-5.636-.04-.52-.01-.738.227-.907.693-.354.979-.775 1.93-1.11 2.917-.195.576-.506.763-1.064.74-1.033-.043-2.07-.012-3.271-.012L72.298 0l.246.016zM70.139 14.95l4.02-.001-1.966-5.306-2.055 5.305z" fill="white"/><path d="M98.63 2.526C98.1 3.88 97.59 5.187 97.038 6.6c-1.9-1.374-3.873-2.164-6.11-1.51-1.41.412-2.495 1.363-3.3 2.634-1.745 2.754-1.463 7.166.552 9.337 2.337 2.52 5.825 2.662 9.215.275.52 1.214 1.048 2.403 1.524 3.615.05.124-.158.46-.322.569-5.458 3.618-15.023 1.88-16.28-7.806-.326-2.512.037-4.946 1.046-7.264C85.008 2.677 88.766.344 92.661.622c2.116.15 4.102.663 5.97 1.904z" fill="white"/><path d="M49.088 5.11V.942h13.875v4.13h-4.961v17.896H53.91V5.11h-4.822z" fill="white"/></g><defs><clipPath id="clip0_954_1332"><rect width="161" height="24" fill="white"/></clipPath></defs></svg>